<svg xmlns="http://www.w3.org/2000/svg" xmlns:xlink="http://www.w3.org/1999/xlink" version="1.1" x="0px" y="0px" viewBox="0 0 32 32" enable-background="new 0 0 32 32" xml:space="preserve"><g display="none"><rect x="-331.333" y="-186.672" display="inline" fill="#000000" width="473.333" height="236"></rect></g><g display="none"><g display="inline"><g><polygon fill="#000000" points="11.53,24.065 7.061,16 11.53,7.935 20.47,7.935 24.939,16 20.47,24.065    "></polygon></g><g><g><rect x="-10.172" y="13.322" transform="matrix(4.487350e-11 -1 1 4.487350e-11 -13.3221 18.6779)" fill="#000000" width="25.7" height="5.356"></rect></g><g><rect x="16.472" y="13.322" transform="matrix(4.487350e-11 -1 1 4.487350e-11 13.3221 45.3221)" fill="#000000" width="25.7" height="5.356"></rect></g></g></g></g><g><g><g><path d="M19.88,8.935L23.796,16l-3.915,7.065H12.12L8.204,16l3.915-7.065H19.88 M20.47,7.935H11.53L7.061,16l4.47,8.065h8.939     L24.939,16L20.47,7.935L20.47,7.935z"></path></g><g><g><path d="M4.356,4.15v23.7H1V4.15H4.356 M5.356,3.15H0v25.7h5.356V3.15L5.356,3.15z"></path></g><g><path d="M31,4.15v23.7h-3.356V4.15H31 M32,3.15h-5.356v25.7H32V3.15L32,3.15z"></path></g></g></g></g><g display="none"><g display="inline"><polygon fill="#000000" points="11.825,23.564 7.632,16 11.825,8.435 20.175,8.435 24.368,16 20.175,23.564   "></polygon><g><path d="M19.88,8.935L23.796,16l-3.915,7.065H12.12L8.204,16l3.915-7.065H19.88 M20.47,7.935H11.53L7.061,16l4.47,8.065h8.939     L24.939,16L20.47,7.935L20.47,7.935z"></path></g></g><g display="inline"><rect x="0.5" y="3.65" fill="#000000" width="4.355" height="24.7"></rect><g><path fill="#000000" d="M4.356,4.15v23.7H1V4.15H4.356 M5.356,3.15H0v25.7h5.356V3.15L5.356,3.15z"></path></g></g><g display="inline"><rect x="27.145" y="3.65" fill="#000000" width="4.355" height="24.7"></rect><g><path fill="#000000" d="M31,4.15v23.7h-3.356V4.15H31 M32,3.15h-5.356v25.7H32V3.15L32,3.15z"></path></g></g></g><g display="none"><polygon display="inline" fill="#000000" points="11.53,24.065 7.061,16 11.53,7.935 20.47,7.935 24.939,16 20.47,24.065  "></polygon><rect x="-10.172" y="13.322" transform="matrix(4.487350e-11 -1 1 4.487350e-11 -13.3221 18.6779)" display="inline" fill="#000000" width="25.7" height="5.356"></rect><rect x="16.472" y="13.322" transform="matrix(4.487350e-11 -1 1 4.487350e-11 13.3221 45.3221)" display="inline" fill="#000000" width="25.7" height="5.356"></rect></g></svg>